{
  "asset": {
    "version": "2.0",
    "generator": "AstraCraft deterministic glTF pipeline 1.0",
    "copyright": "Original procedural geometry and project-owned texture atlas",
    "extras": {
      "coordinateSystem": "right-handed, +Y up, +Z forward",
      "units": "meters",
      "uvPolicy": "TEXCOORD_0; unique non-overlapping islands inside 0-1; atlas gutters"
    }
  },
  "scene": 0,
  "scenes": [
    {
      "name": "SalvageDroneGeometry Scene",
      "nodes": [
        0,
        1,
        2
      ],
      "extras": {
        "gameplay": {
          "radius": 2.9,
          "hoverHeight": 3.2,
          "forwardAxis": "+Z"
        }
      }
    }
  ],
  "nodes": [
    {
      "name": "SalvageDroneGeometry",
      "mesh": 0,
      "extras": {
        "role": "renderGeometry",
        "collision": "mesh"
      }
    },
    {
      "name": "CameraFocus",
      "translation": [
        0,
        0.1,
        0
      ],
      "extras": {
        "role": "camera-target"
      }
    },
    {
      "name": "CargoSocket",
      "translation": [
        0,
        -0.72,
        0
      ],
      "extras": {
        "role": "attachment",
        "accepts": "salvage-crate"
      }
    }
  ],
  "meshes": [
    {
      "name": "SalvageDroneGeometry Mesh",
      "primitives": [
        {
          "attributes": {
            "POSITION": 0,
            "NORMAL": 1,
            "TEXCOORD_0": 2
          },
          "indices": 3,
          "material": 1,
          "mode": 4
        },
        {
          "attributes": {
            "POSITION": 0,
            "NORMAL": 1,
            "TEXCOORD_0": 2
          },
          "indices": 4,
          "material": 3,
          "mode": 4
        },
        {
          "attributes": {
            "POSITION": 0,
            "NORMAL": 1,
            "TEXCOORD_0": 2
          },
          "indices": 5,
          "material": 7,
          "mode": 4
        },
        {
          "attributes": {
            "POSITION": 0,
            "NORMAL": 1,
            "TEXCOORD_0": 2
          },
          "indices": 6,
          "material": 9,
          "mode": 4
        },
        {
          "attributes": {
            "POSITION": 0,
            "NORMAL": 1,
            "TEXCOORD_0": 2
          },
          "indices": 7,
          "material": 10,
          "mode": 4
        },
        {
          "attributes": {
            "POSITION": 0,
            "NORMAL": 1,
            "TEXCOORD_0": 2
          },
          "indices": 8,
          "material": 12,
          "mode": 4
        },
        {
          "attributes": {
            "POSITION": 0,
            "NORMAL": 1,
            "TEXCOORD_0": 2
          },
          "indices": 9,
          "material": 13,
          "mode": 4
        },
        {
          "attributes": {
            "POSITION": 0,
            "NORMAL": 1,
            "TEXCOORD_0": 2
          },
          "indices": 10,
          "material": 14,
          "mode": 4
        }
      ],
      "extras": {
        "vertices": 1792,
        "triangles": 828,
        "uvIslands": 482,
        "materialPrimitives": 8
      }
    }
  ],
  "materials": [
    {
      "name": "Blue Hull",
      "pbrMetallicRoughness": {
        "baseColorFactor": [
          1,
          1,
          1,
          1
        ],
        "baseColorTexture": {
          "index": 0,
          "texCoord": 0
        },
        "metallicFactor": 0.78,
        "roughnessFactor": 0.62,
        "metallicRoughnessTexture": {
          "index": 1,
          "texCoord": 0
        }
      },
      "normalTexture": {
        "index": 2,
        "texCoord": 0,
        "scale": 0.72
      },
      "occlusionTexture": {
        "index": 1,
        "texCoord": 0,
        "strength": 0.62
      },
      "emissiveTexture": {
        "index": 3,
        "texCoord": 0
      },
      "emissiveFactor": [
        0,
        0,
        0
      ],
      "alphaMode": "OPAQUE",
      "doubleSided": false,
      "extras": {
        "atlasTile": 0,
        "uvSet": 0
      }
    },
    {
      "name": "Dark Service Panel",
      "pbrMetallicRoughness": {
        "baseColorFactor": [
          1,
          1,
          1,
          1
        ],
        "baseColorTexture": {
          "index": 0,
          "texCoord": 0
        },
        "metallicFactor": 0.86,
        "roughnessFactor": 0.58,
        "metallicRoughnessTexture": {
          "index": 1,
          "texCoord": 0
        }
      },
      "normalTexture": {
        "index": 2,
        "texCoord": 0,
        "scale": 0.72
      },
      "occlusionTexture": {
        "index": 1,
        "texCoord": 0,
        "strength": 0.62
      },
      "emissiveTexture": {
        "index": 3,
        "texCoord": 0
      },
      "emissiveFactor": [
        0,
        0,
        0
      ],
      "alphaMode": "OPAQUE",
      "doubleSided": false,
      "extras": {
        "atlasTile": 1,
        "uvSet": 0
      }
    },
    {
      "name": "Oxidized Copper",
      "pbrMetallicRoughness": {
        "baseColorFactor": [
          1,
          1,
          1,
          1
        ],
        "baseColorTexture": {
          "index": 0,
          "texCoord": 0
        },
        "metallicFactor": 0.72,
        "roughnessFactor": 0.72,
        "metallicRoughnessTexture": {
          "index": 1,
          "texCoord": 0
        }
      },
      "normalTexture": {
        "index": 2,
        "texCoord": 0,
        "scale": 0.72
      },
      "occlusionTexture": {
        "index": 1,
        "texCoord": 0,
        "strength": 0.62
      },
      "emissiveTexture": {
        "index": 3,
        "texCoord": 0
      },
      "emissiveFactor": [
        0,
        0,
        0
      ],
      "alphaMode": "OPAQUE",
      "doubleSided": false,
      "extras": {
        "atlasTile": 2,
        "uvSet": 0
      }
    },
    {
      "name": "Ceramic White",
      "pbrMetallicRoughness": {
        "baseColorFactor": [
          1,
          1,
          1,
          1
        ],
        "baseColorTexture": {
          "index": 0,
          "texCoord": 0
        },
        "metallicFactor": 0.18,
        "roughnessFactor": 0.68,
        "metallicRoughnessTexture": {
          "index": 1,
          "texCoord": 0
        }
      },
      "normalTexture": {
        "index": 2,
        "texCoord": 0,
        "scale": 0.72
      },
      "occlusionTexture": {
        "index": 1,
        "texCoord": 0,
        "strength": 0.62
      },
      "emissiveTexture": {
        "index": 3,
        "texCoord": 0
      },
      "emissiveFactor": [
        0,
        0,
        0
      ],
      "alphaMode": "OPAQUE",
      "doubleSided": false,
      "extras": {
        "atlasTile": 3,
        "uvSet": 0
      }
    },
    {
      "name": "Safety Yellow",
      "pbrMetallicRoughness": {
        "baseColorFactor": [
          1,
          1,
          1,
          1
        ],
        "baseColorTexture": {
          "index": 0,
          "texCoord": 0
        },
        "metallicFactor": 0.5,
        "roughnessFactor": 0.7,
        "metallicRoughnessTexture": {
          "index": 1,
          "texCoord": 0
        }
      },
      "normalTexture": {
        "index": 2,
        "texCoord": 0,
        "scale": 0.72
      },
      "occlusionTexture": {
        "index": 1,
        "texCoord": 0,
        "strength": 0.62
      },
      "emissiveTexture": {
        "index": 3,
        "texCoord": 0
      },
      "emissiveFactor": [
        0,
        0,
        0
      ],
      "alphaMode": "OPAQUE",
      "doubleSided": false,
      "extras": {
        "atlasTile": 4,
        "uvSet": 0
      }
    },
    {
      "name": "Hazard Stripe",
      "pbrMetallicRoughness": {
        "baseColorFactor": [
          1,
          1,
          1,
          1
        ],
        "baseColorTexture": {
          "index": 0,
          "texCoord": 0
        },
        "metallicFactor": 0.42,
        "roughnessFactor": 0.74,
        "metallicRoughnessTexture": {
          "index": 1,
          "texCoord": 0
        }
      },
      "normalTexture": {
        "index": 2,
        "texCoord": 0,
        "scale": 0.72
      },
      "occlusionTexture": {
        "index": 1,
        "texCoord": 0,
        "strength": 0.62
      },
      "emissiveTexture": {
        "index": 3,
        "texCoord": 0
      },
      "emissiveFactor": [
        0,
        0,
        0
      ],
      "alphaMode": "OPAQUE",
      "doubleSided": false,
      "extras": {
        "atlasTile": 5,
        "uvSet": 0
      }
    },
    {
      "name": "Industrial Rubber",
      "pbrMetallicRoughness": {
        "baseColorFactor": [
          1,
          1,
          1,
          1
        ],
        "baseColorTexture": {
          "index": 0,
          "texCoord": 0
        },
        "metallicFactor": 0.05,
        "roughnessFactor": 0.96,
        "metallicRoughnessTexture": {
          "index": 1,
          "texCoord": 0
        }
      },
      "normalTexture": {
        "index": 2,
        "texCoord": 0,
        "scale": 0.72
      },
      "occlusionTexture": {
        "index": 1,
        "texCoord": 0,
        "strength": 0.62
      },
      "emissiveTexture": {
        "index": 3,
        "texCoord": 0
      },
      "emissiveFactor": [
        0,
        0,
        0
      ],
      "alphaMode": "OPAQUE",
      "doubleSided": false,
      "extras": {
        "atlasTile": 6,
        "uvSet": 0
      }
    },
    {
      "name": "Brushed Steel",
      "pbrMetallicRoughness": {
        "baseColorFactor": [
          1,
          1,
          1,
          1
        ],
        "baseColorTexture": {
          "index": 0,
          "texCoord": 0
        },
        "metallicFactor": 0.94,
        "roughnessFactor": 0.44,
        "metallicRoughnessTexture": {
          "index": 1,
          "texCoord": 0
        }
      },
      "normalTexture": {
        "index": 2,
        "texCoord": 0,
        "scale": 0.72
      },
      "occlusionTexture": {
        "index": 1,
        "texCoord": 0,
        "strength": 0.62
      },
      "emissiveTexture": {
        "index": 3,
        "texCoord": 0
      },
      "emissiveFactor": [
        0,
        0,
        0
      ],
      "alphaMode": "OPAQUE",
      "doubleSided": false,
      "extras": {
        "atlasTile": 7,
        "uvSet": 0
      }
    },
    {
      "name": "Lunar Concrete",
      "pbrMetallicRoughness": {
        "baseColorFactor": [
          1,
          1,
          1,
          1
        ],
        "baseColorTexture": {
          "index": 0,
          "texCoord": 0
        },
        "metallicFactor": 0.02,
        "roughnessFactor": 0.98,
        "metallicRoughnessTexture": {
          "index": 1,
          "texCoord": 0
        }
      },
      "normalTexture": {
        "index": 2,
        "texCoord": 0,
        "scale": 0.72
      },
      "occlusionTexture": {
        "index": 1,
        "texCoord": 0,
        "strength": 0.62
      },
      "emissiveTexture": {
        "index": 3,
        "texCoord": 0
      },
      "emissiveFactor": [
        0,
        0,
        0
      ],
      "alphaMode": "OPAQUE",
      "doubleSided": false,
      "extras": {
        "atlasTile": 8,
        "uvSet": 0
      }
    },
    {
      "name": "Teal Utility Paint",
      "pbrMetallicRoughness": {
        "baseColorFactor": [
          1,
          1,
          1,
          1
        ],
        "baseColorTexture": {
          "index": 0,
          "texCoord": 0
        },
        "metallicFactor": 0.5,
        "roughnessFactor": 0.66,
        "metallicRoughnessTexture": {
          "index": 1,
          "texCoord": 0
        }
      },
      "normalTexture": {
        "index": 2,
        "texCoord": 0,
        "scale": 0.72
      },
      "occlusionTexture": {
        "index": 1,
        "texCoord": 0,
        "strength": 0.62
      },
      "emissiveTexture": {
        "index": 3,
        "texCoord": 0
      },
      "emissiveFactor": [
        0,
        0,
        0
      ],
      "alphaMode": "OPAQUE",
      "doubleSided": false,
      "extras": {
        "atlasTile": 9,
        "uvSet": 0
      }
    },
    {
      "name": "Rescue Orange",
      "pbrMetallicRoughness": {
        "baseColorFactor": [
          1,
          1,
          1,
          1
        ],
        "baseColorTexture": {
          "index": 0,
          "texCoord": 0
        },
        "metallicFactor": 0.5,
        "roughnessFactor": 0.64,
        "metallicRoughnessTexture": {
          "index": 1,
          "texCoord": 0
        }
      },
      "normalTexture": {
        "index": 2,
        "texCoord": 0,
        "scale": 0.72
      },
      "occlusionTexture": {
        "index": 1,
        "texCoord": 0,
        "strength": 0.62
      },
      "emissiveTexture": {
        "index": 3,
        "texCoord": 0
      },
      "emissiveFactor": [
        0,
        0,
        0
      ],
      "alphaMode": "OPAQUE",
      "doubleSided": false,
      "extras": {
        "atlasTile": 10,
        "uvSet": 0
      }
    },
    {
      "name": "Oxide Red",
      "pbrMetallicRoughness": {
        "baseColorFactor": [
          1,
          1,
          1,
          1
        ],
        "baseColorTexture": {
          "index": 0,
          "texCoord": 0
        },
        "metallicFactor": 0.48,
        "roughnessFactor": 0.7,
        "metallicRoughnessTexture": {
          "index": 1,
          "texCoord": 0
        }
      },
      "normalTexture": {
        "index": 2,
        "texCoord": 0,
        "scale": 0.72
      },
      "occlusionTexture": {
        "index": 1,
        "texCoord": 0,
        "strength": 0.62
      },
      "emissiveTexture": {
        "index": 3,
        "texCoord": 0
      },
      "emissiveFactor": [
        0,
        0,
        0
      ],
      "alphaMode": "OPAQUE",
      "doubleSided": false,
      "extras": {
        "atlasTile": 11,
        "uvSet": 0
      }
    },
    {
      "name": "Cyan Diagnostic Light",
      "pbrMetallicRoughness": {
        "baseColorFactor": [
          1,
          1,
          1,
          1
        ],
        "baseColorTexture": {
          "index": 0,
          "texCoord": 0
        },
        "metallicFactor": 0.3,
        "roughnessFactor": 0.3,
        "metallicRoughnessTexture": {
          "index": 1,
          "texCoord": 0
        }
      },
      "normalTexture": {
        "index": 2,
        "texCoord": 0,
        "scale": 0.72
      },
      "occlusionTexture": {
        "index": 1,
        "texCoord": 0,
        "strength": 0.62
      },
      "emissiveTexture": {
        "index": 3,
        "texCoord": 0
      },
      "emissiveFactor": [
        0.35,
        0.9,
        1
      ],
      "alphaMode": "OPAQUE",
      "doubleSided": false,
      "extras": {
        "atlasTile": 12,
        "uvSet": 0
      }
    },
    {
      "name": "Amber Work Light",
      "pbrMetallicRoughness": {
        "baseColorFactor": [
          1,
          1,
          1,
          1
        ],
        "baseColorTexture": {
          "index": 0,
          "texCoord": 0
        },
        "metallicFactor": 0.32,
        "roughnessFactor": 0.36,
        "metallicRoughnessTexture": {
          "index": 1,
          "texCoord": 0
        }
      },
      "normalTexture": {
        "index": 2,
        "texCoord": 0,
        "scale": 0.72
      },
      "occlusionTexture": {
        "index": 1,
        "texCoord": 0,
        "strength": 0.62
      },
      "emissiveTexture": {
        "index": 3,
        "texCoord": 0
      },
      "emissiveFactor": [
        1,
        0.42,
        0.08
      ],
      "alphaMode": "OPAQUE",
      "doubleSided": false,
      "extras": {
        "atlasTile": 13,
        "uvSet": 0
      }
    },
    {
      "name": "Clean Structural Steel",
      "pbrMetallicRoughness": {
        "baseColorFactor": [
          1,
          1,
          1,
          1
        ],
        "baseColorTexture": {
          "index": 0,
          "texCoord": 0
        },
        "metallicFactor": 0.96,
        "roughnessFactor": 0.38,
        "metallicRoughnessTexture": {
          "index": 1,
          "texCoord": 0
        }
      },
      "normalTexture": {
        "index": 2,
        "texCoord": 0,
        "scale": 0.72
      },
      "occlusionTexture": {
        "index": 1,
        "texCoord": 0,
        "strength": 0.62
      },
      "emissiveTexture": {
        "index": 3,
        "texCoord": 0
      },
      "emissiveFactor": [
        0,
        0,
        0
      ],
      "alphaMode": "OPAQUE",
      "doubleSided": false,
      "extras": {
        "atlasTile": 14,
        "uvSet": 0
      }
    },
    {
      "name": "Photovoltaic Cell",
      "pbrMetallicRoughness": {
        "baseColorFactor": [
          1,
          1,
          1,
          1
        ],
        "baseColorTexture": {
          "index": 0,
          "texCoord": 0
        },
        "metallicFactor": 0.38,
        "roughnessFactor": 0.3,
        "metallicRoughnessTexture": {
          "index": 1,
          "texCoord": 0
        }
      },
      "normalTexture": {
        "index": 2,
        "texCoord": 0,
        "scale": 0.72
      },
      "occlusionTexture": {
        "index": 1,
        "texCoord": 0,
        "strength": 0.62
      },
      "emissiveTexture": {
        "index": 3,
        "texCoord": 0
      },
      "emissiveFactor": [
        0,
        0,
        0
      ],
      "alphaMode": "OPAQUE",
      "doubleSided": false,
      "extras": {
        "atlasTile": 15,
        "uvSet": 0
      }
    }
  ],
  "samplers": [
    {
      "name": "Atlas clamp sampler",
      "magFilter": 9729,
      "minFilter": 9987,
      "wrapS": 33071,
      "wrapT": 33071
    }
  ],
  "images": [
    {
      "name": "Base Color Atlas",
      "uri": "../textures/district-atlas-basecolor.png"
    },
    {
      "name": "Metallic Roughness Atlas",
      "uri": "../textures/district-atlas-metallic-roughness.png"
    },
    {
      "name": "Normal Atlas",
      "uri": "../textures/district-atlas-normal.png"
    },
    {
      "name": "Emissive Atlas",
      "uri": "../textures/district-atlas-emissive.png"
    }
  ],
  "textures": [
    {
      "sampler": 0,
      "source": 0
    },
    {
      "sampler": 0,
      "source": 1
    },
    {
      "sampler": 0,
      "source": 2
    },
    {
      "sampler": 0,
      "source": 3
    }
  ],
  "buffers": [
    {
      "name": "SalvageDroneGeometry geometry",
      "uri": "salvage-drone.bin",
      "byteLength": 67280
    }
  ],
  "bufferViews": [
    {
      "buffer": 0,
      "byteOffset": 0,
      "byteLength": 21504,
      "target": 34962
    },
    {
      "buffer": 0,
      "byteOffset": 21504,
      "byteLength": 21504,
      "target": 34962
    },
    {
      "buffer": 0,
      "byteOffset": 43008,
      "byteLength": 14336,
      "target": 34962
    },
    {
      "buffer": 0,
      "byteOffset": 57344,
      "byteLength": 5376,
      "target": 34963
    },
    {
      "buffer": 0,
      "byteOffset": 62720,
      "byteLength": 576,
      "target": 34963
    },
    {
      "buffer": 0,
      "byteOffset": 63296,
      "byteLength": 576,
      "target": 34963
    },
    {
      "buffer": 0,
      "byteOffset": 63872,
      "byteLength": 672,
      "target": 34963
    },
    {
      "buffer": 0,
      "byteOffset": 64544,
      "byteLength": 1536,
      "target": 34963
    },
    {
      "buffer": 0,
      "byteOffset": 66080,
      "byteLength": 144,
      "target": 34963
    },
    {
      "buffer": 0,
      "byteOffset": 66224,
      "byteLength": 480,
      "target": 34963
    },
    {
      "buffer": 0,
      "byteOffset": 66704,
      "byteLength": 576,
      "target": 34963
    }
  ],
  "accessors": [
    {
      "bufferView": 0,
      "byteOffset": 0,
      "componentType": 5126,
      "count": 1792,
      "type": "VEC3",
      "min": [
        -2.2352795795510776,
        -0.64,
        -2.2173530367610814
      ],
      "max": [
        2.235279579551077,
        0.6699999999999999,
        2.2173530367610814
      ]
    },
    {
      "bufferView": 1,
      "byteOffset": 0,
      "componentType": 5126,
      "count": 1792,
      "type": "VEC3"
    },
    {
      "bufferView": 2,
      "byteOffset": 0,
      "componentType": 5126,
      "count": 1792,
      "type": "VEC2",
      "min": [
        0.0009375,
        0.0009375
      ],
      "max": [
        0.9990625,
        0.7698958333333333
      ]
    },
    {
      "bufferView": 3,
      "byteOffset": 0,
      "componentType": 5125,
      "count": 1344,
      "type": "SCALAR",
      "min": [
        408
      ],
      "max": [
        1687
      ]
    },
    {
      "bufferView": 4,
      "byteOffset": 0,
      "componentType": 5125,
      "count": 144,
      "type": "SCALAR",
      "min": [
        140
      ],
      "max": [
        259
      ]
    },
    {
      "bufferView": 5,
      "byteOffset": 0,
      "componentType": 5125,
      "count": 144,
      "type": "SCALAR",
      "min": [
        712
      ],
      "max": [
        1791
      ]
    },
    {
      "bufferView": 6,
      "byteOffset": 0,
      "componentType": 5125,
      "count": 168,
      "type": "SCALAR",
      "min": [
        0
      ],
      "max": [
        139
      ]
    },
    {
      "bufferView": 7,
      "byteOffset": 0,
      "componentType": 5125,
      "count": 384,
      "type": "SCALAR",
      "min": [
        632
      ],
      "max": [
        1767
      ]
    },
    {
      "bufferView": 8,
      "byteOffset": 0,
      "componentType": 5125,
      "count": 36,
      "type": "SCALAR",
      "min": [
        360
      ],
      "max": [
        383
      ]
    },
    {
      "bufferView": 9,
      "byteOffset": 0,
      "componentType": 5125,
      "count": 120,
      "type": "SCALAR",
      "min": [
        260
      ],
      "max": [
        359
      ]
    },
    {
      "bufferView": 10,
      "byteOffset": 0,
      "componentType": 5125,
      "count": 144,
      "type": "SCALAR",
      "min": [
        384
      ],
      "max": [
        1463
      ]
    }
  ]
}
