{
  "asset": {
    "version": "2.0",
    "generator": "AstraCraft xhigh procedural modeler 1.0",
    "copyright": "Original AstraCraft project asset",
    "extras": {
      "coordinateSystem": "Y-up, right-handed, metres",
      "uvPolicy": "All six box-face islands are non-overlapping and contained within one atlas quadrant in the 0-1 range."
    }
  },
  "scene": 0,
  "scenes": [
    {
      "name": "Cinder Yard Repair District",
      "nodes": [
        0,
        1,
        2,
        3,
        4,
        5,
        6,
        7,
        8,
        9,
        10,
        11,
        12,
        13,
        14,
        15,
        16,
        17,
        18,
        19,
        20,
        21,
        22,
        23,
        24,
        25,
        26,
        27,
        28,
        29,
        30,
        31,
        32,
        33,
        34,
        35,
        36,
        37,
        38,
        39,
        40,
        41,
        42,
        43,
        44,
        45,
        46,
        47,
        48,
        49,
        50,
        51,
        52,
        53,
        54,
        55,
        56,
        57,
        58,
        59,
        60,
        61,
        62,
        63,
        64,
        65,
        66,
        67,
        68,
        69,
        70,
        71,
        72,
        73,
        74,
        75,
        76,
        77,
        78,
        89,
        94,
        100,
        101,
        102,
        103,
        104,
        105,
        106,
        107,
        108,
        109,
        110,
        117,
        124,
        131
      ]
    }
  ],
  "nodes": [
    {
      "name": "Ground_0_0",
      "mesh": 2,
      "translation": [
        -15.149999999999999,
        0.05,
        -10.1
      ],
      "scale": [
        4.88,
        0.18,
        4.88
      ]
    },
    {
      "name": "Ground_0_1",
      "mesh": 2,
      "translation": [
        -15.149999999999999,
        0.05,
        -5.05
      ],
      "scale": [
        4.88,
        0.18,
        4.88
      ]
    },
    {
      "name": "Ground_0_2",
      "mesh": 2,
      "translation": [
        -15.149999999999999,
        0.05,
        0
      ],
      "scale": [
        4.88,
        0.18,
        4.88
      ]
    },
    {
      "name": "Ground_0_3",
      "mesh": 2,
      "translation": [
        -15.149999999999999,
        0.09,
        5.05
      ],
      "scale": [
        4.88,
        0.18,
        4.88
      ]
    },
    {
      "name": "Ground_0_4",
      "mesh": 2,
      "translation": [
        -15.149999999999999,
        0.05,
        10.1
      ],
      "scale": [
        4.88,
        0.18,
        4.88
      ]
    },
    {
      "name": "Ground_1_0",
      "mesh": 2,
      "translation": [
        -10.1,
        0.05,
        -10.1
      ],
      "scale": [
        4.88,
        0.18,
        4.88
      ]
    },
    {
      "name": "Ground_1_1",
      "mesh": 2,
      "translation": [
        -10.1,
        0.09,
        -5.05
      ],
      "scale": [
        4.88,
        0.18,
        4.88
      ]
    },
    {
      "name": "Ground_1_2",
      "mesh": 2,
      "translation": [
        -10.1,
        0.05,
        0
      ],
      "scale": [
        4.88,
        0.18,
        4.88
      ]
    },
    {
      "name": "Ground_1_3",
      "mesh": 2,
      "translation": [
        -10.1,
        0.05,
        5.05
      ],
      "scale": [
        4.88,
        0.18,
        4.88
      ]
    },
    {
      "name": "Ground_1_4",
      "mesh": 2,
      "translation": [
        -10.1,
        0.05,
        10.1
      ],
      "scale": [
        4.88,
        0.18,
        4.88
      ]
    },
    {
      "name": "Ground_2_0",
      "mesh": 2,
      "translation": [
        -5.05,
        0.05,
        -10.1
      ],
      "scale": [
        4.88,
        0.18,
        4.88
      ]
    },
    {
      "name": "Ground_2_1",
      "mesh": 2,
      "translation": [
        -5.05,
        0.05,
        -5.05
      ],
      "scale": [
        4.88,
        0.18,
        4.88
      ]
    },
    {
      "name": "Ground_2_2",
      "mesh": 2,
      "translation": [
        -5.05,
        0.05,
        0
      ],
      "scale": [
        4.88,
        0.18,
        4.88
      ]
    },
    {
      "name": "Ground_2_3",
      "mesh": 2,
      "translation": [
        -5.05,
        0.05,
        5.05
      ],
      "scale": [
        4.88,
        0.18,
        4.88
      ]
    },
    {
      "name": "Ground_2_4",
      "mesh": 2,
      "translation": [
        -5.05,
        0.09,
        10.1
      ],
      "scale": [
        4.88,
        0.18,
        4.88
      ]
    },
    {
      "name": "Ground_3_0",
      "mesh": 2,
      "translation": [
        0,
        0.05,
        -10.1
      ],
      "scale": [
        4.88,
        0.18,
        4.88
      ]
    },
    {
      "name": "Ground_3_1",
      "mesh": 2,
      "translation": [
        0,
        0.05,
        -5.05
      ],
      "scale": [
        4.88,
        0.18,
        4.88
      ]
    },
    {
      "name": "Ground_3_2",
      "mesh": 2,
      "translation": [
        0,
        0.09,
        0
      ],
      "scale": [
        4.88,
        0.18,
        4.88
      ]
    },
    {
      "name": "Ground_3_3",
      "mesh": 2,
      "translation": [
        0,
        0.05,
        5.05
      ],
      "scale": [
        4.88,
        0.18,
        4.88
      ]
    },
    {
      "name": "Ground_3_4",
      "mesh": 2,
      "translation": [
        0,
        0.05,
        10.1
      ],
      "scale": [
        4.88,
        0.18,
        4.88
      ]
    },
    {
      "name": "Ground_4_0",
      "mesh": 2,
      "translation": [
        5.05,
        0.09,
        -10.1
      ],
      "scale": [
        4.88,
        0.18,
        4.88
      ]
    },
    {
      "name": "Ground_4_1",
      "mesh": 2,
      "translation": [
        5.05,
        0.05,
        -5.05
      ],
      "scale": [
        4.88,
        0.18,
        4.88
      ]
    },
    {
      "name": "Ground_4_2",
      "mesh": 2,
      "translation": [
        5.05,
        0.05,
        0
      ],
      "scale": [
        4.88,
        0.18,
        4.88
      ]
    },
    {
      "name": "Ground_4_3",
      "mesh": 2,
      "translation": [
        5.05,
        0.05,
        5.05
      ],
      "scale": [
        4.88,
        0.18,
        4.88
      ]
    },
    {
      "name": "Ground_4_4",
      "mesh": 2,
      "translation": [
        5.05,
        0.05,
        10.1
      ],
      "scale": [
        4.88,
        0.18,
        4.88
      ]
    },
    {
      "name": "Ground_5_0",
      "mesh": 2,
      "translation": [
        10.1,
        0.05,
        -10.1
      ],
      "scale": [
        4.88,
        0.18,
        4.88
      ]
    },
    {
      "name": "Ground_5_1",
      "mesh": 2,
      "translation": [
        10.1,
        0.05,
        -5.05
      ],
      "scale": [
        4.88,
        0.18,
        4.88
      ]
    },
    {
      "name": "Ground_5_2",
      "mesh": 2,
      "translation": [
        10.1,
        0.05,
        0
      ],
      "scale": [
        4.88,
        0.18,
        4.88
      ]
    },
    {
      "name": "Ground_5_3",
      "mesh": 2,
      "translation": [
        10.1,
        0.09,
        5.05
      ],
      "scale": [
        4.88,
        0.18,
        4.88
      ]
    },
    {
      "name": "Ground_5_4",
      "mesh": 2,
      "translation": [
        10.1,
        0.05,
        10.1
      ],
      "scale": [
        4.88,
        0.18,
        4.88
      ]
    },
    {
      "name": "Ground_6_0",
      "mesh": 2,
      "translation": [
        15.149999999999999,
        0.05,
        -10.1
      ],
      "scale": [
        4.88,
        0.18,
        4.88
      ]
    },
    {
      "name": "Ground_6_1",
      "mesh": 2,
      "translation": [
        15.149999999999999,
        0.09,
        -5.05
      ],
      "scale": [
        4.88,
        0.18,
        4.88
      ]
    },
    {
      "name": "Ground_6_2",
      "mesh": 2,
      "translation": [
        15.149999999999999,
        0.05,
        0
      ],
      "scale": [
        4.88,
        0.18,
        4.88
      ]
    },
    {
      "name": "Ground_6_3",
      "mesh": 2,
      "translation": [
        15.149999999999999,
        0.05,
        5.05
      ],
      "scale": [
        4.88,
        0.18,
        4.88
      ]
    },
    {
      "name": "Ground_6_4",
      "mesh": 2,
      "translation": [
        15.149999999999999,
        0.05,
        10.1
      ],
      "scale": [
        4.88,
        0.18,
        4.88
      ]
    },
    {
      "name": "NorthMegawall",
      "mesh": 0,
      "translation": [
        0,
        5.4,
        -15
      ],
      "scale": [
        36.5,
        10.7,
        1.6
      ]
    },
    {
      "name": "WestMegawall",
      "mesh": 0,
      "translation": [
        -18.2,
        4.5,
        0
      ],
      "scale": [
        1.7,
        9,
        29
      ]
    },
    {
      "name": "EastMegawall",
      "mesh": 0,
      "translation": [
        18.2,
        4.8,
        0
      ],
      "scale": [
        1.7,
        9.6,
        29
      ]
    },
    {
      "name": "SouthWallWest",
      "mesh": 0,
      "translation": [
        -11.8,
        3.1,
        14.2
      ],
      "scale": [
        12.5,
        6.2,
        1.5
      ]
    },
    {
      "name": "SouthWallEast",
      "mesh": 0,
      "translation": [
        11.8,
        3.1,
        14.2
      ],
      "scale": [
        12.5,
        6.2,
        1.5
      ]
    },
    {
      "name": "NorthButtress_-16",
      "mesh": 2,
      "translation": [
        -16,
        5.2,
        -13.85
      ],
      "scale": [
        1.15,
        10.4,
        1.4
      ]
    },
    {
      "name": "NorthCap_-16",
      "mesh": 2,
      "translation": [
        -16,
        10.9,
        -14.4
      ],
      "scale": [
        3.6,
        0.62,
        2.2
      ]
    },
    {
      "name": "NorthButtress_-11",
      "mesh": 2,
      "translation": [
        -11,
        5.2,
        -13.85
      ],
      "scale": [
        1.15,
        10.4,
        1.4
      ]
    },
    {
      "name": "NorthCap_-11",
      "mesh": 2,
      "translation": [
        -11,
        10.9,
        -14.4
      ],
      "scale": [
        3.6,
        0.62,
        2.2
      ]
    },
    {
      "name": "NorthButtress_-6",
      "mesh": 2,
      "translation": [
        -6,
        5.2,
        -13.85
      ],
      "scale": [
        1.15,
        10.4,
        1.4
      ]
    },
    {
      "name": "NorthCap_-6",
      "mesh": 2,
      "translation": [
        -6,
        10.9,
        -14.4
      ],
      "scale": [
        3.6,
        0.62,
        2.2
      ]
    },
    {
      "name": "NorthButtress_-1",
      "mesh": 2,
      "translation": [
        -1,
        5.2,
        -13.85
      ],
      "scale": [
        1.15,
        10.4,
        1.4
      ]
    },
    {
      "name": "NorthCap_-1",
      "mesh": 2,
      "translation": [
        -1,
        10.9,
        -14.4
      ],
      "scale": [
        3.6,
        0.62,
        2.2
      ]
    },
    {
      "name": "NorthButtress_4",
      "mesh": 2,
      "translation": [
        4,
        5.2,
        -13.85
      ],
      "scale": [
        1.15,
        10.4,
        1.4
      ]
    },
    {
      "name": "NorthCap_4",
      "mesh": 2,
      "translation": [
        4,
        10.9,
        -14.4
      ],
      "scale": [
        3.6,
        0.62,
        2.2
      ]
    },
    {
      "name": "NorthButtress_9",
      "mesh": 2,
      "translation": [
        9,
        5.2,
        -13.85
      ],
      "scale": [
        1.15,
        10.4,
        1.4
      ]
    },
    {
      "name": "NorthCap_9",
      "mesh": 2,
      "translation": [
        9,
        10.9,
        -14.4
      ],
      "scale": [
        3.6,
        0.62,
        2.2
      ]
    },
    {
      "name": "NorthButtress_14",
      "mesh": 2,
      "translation": [
        14,
        5.2,
        -13.85
      ],
      "scale": [
        1.15,
        10.4,
        1.4
      ]
    },
    {
      "name": "NorthCap_14",
      "mesh": 2,
      "translation": [
        14,
        10.9,
        -14.4
      ],
      "scale": [
        3.6,
        0.62,
        2.2
      ]
    },
    {
      "name": "WestButtress_-11.5",
      "mesh": 2,
      "translation": [
        -17.1,
        4,
        -11.5
      ],
      "scale": [
        1.7,
        8,
        1.15
      ]
    },
    {
      "name": "EastButtress_-11.5",
      "mesh": 2,
      "translation": [
        17.1,
        4.4,
        -11.5
      ],
      "scale": [
        1.7,
        8.8,
        1.15
      ]
    },
    {
      "name": "WestButtress_-7",
      "mesh": 2,
      "translation": [
        -17.1,
        4,
        -7
      ],
      "scale": [
        1.7,
        8,
        1.15
      ]
    },
    {
      "name": "EastButtress_-7",
      "mesh": 2,
      "translation": [
        17.1,
        4.4,
        -7
      ],
      "scale": [
        1.7,
        8.8,
        1.15
      ]
    },
    {
      "name": "WestButtress_-2.5",
      "mesh": 2,
      "translation": [
        -17.1,
        4,
        -2.5
      ],
      "scale": [
        1.7,
        8,
        1.15
      ]
    },
    {
      "name": "EastButtress_-2.5",
      "mesh": 2,
      "translation": [
        17.1,
        4.4,
        -2.5
      ],
      "scale": [
        1.7,
        8.8,
        1.15
      ]
    },
    {
      "name": "WestButtress_2",
      "mesh": 2,
      "translation": [
        -17.1,
        4,
        2
      ],
      "scale": [
        1.7,
        8,
        1.15
      ]
    },
    {
      "name": "EastButtress_2",
      "mesh": 2,
      "translation": [
        17.1,
        4.4,
        2
      ],
      "scale": [
        1.7,
        8.8,
        1.15
      ]
    },
    {
      "name": "WestButtress_6.5",
      "mesh": 2,
      "translation": [
        -17.1,
        4,
        6.5
      ],
      "scale": [
        1.7,
        8,
        1.15
      ]
    },
    {
      "name": "EastButtress_6.5",
      "mesh": 2,
      "translation": [
        17.1,
        4.4,
        6.5
      ],
      "scale": [
        1.7,
        8.8,
        1.15
      ]
    },
    {
      "name": "WestButtress_11",
      "mesh": 2,
      "translation": [
        -17.1,
        4,
        11
      ],
      "scale": [
        1.7,
        8,
        1.15
      ]
    },
    {
      "name": "EastButtress_11",
      "mesh": 2,
      "translation": [
        17.1,
        4.4,
        11
      ],
      "scale": [
        1.7,
        8.8,
        1.15
      ]
    },
    {
      "name": "Tower_NW_Core",
      "mesh": 0,
      "translation": [
        -16.2,
        6.5,
        -13.1
      ],
      "scale": [
        4.2,
        13,
        4.2
      ]
    },
    {
      "name": "Tower_NW_Crown",
      "mesh": 2,
      "translation": [
        -16.2,
        13.35,
        -13.1
      ],
      "scale": [
        5,
        0.7,
        5
      ]
    },
    {
      "name": "Tower_NW_Signal",
      "mesh": 5,
      "translation": [
        -16.2,
        13.85,
        -14.9
      ],
      "scale": [
        1.6,
        0.16,
        0.16
      ]
    },
    {
      "name": "Tower_NE_Core",
      "mesh": 0,
      "translation": [
        16.1,
        7.25,
        -13.2
      ],
      "scale": [
        4.2,
        14.5,
        4.2
      ]
    },
    {
      "name": "Tower_NE_Crown",
      "mesh": 2,
      "translation": [
        16.1,
        14.85,
        -13.2
      ],
      "scale": [
        5,
        0.7,
        5
      ]
    },
    {
      "name": "Tower_NE_Signal",
      "mesh": 5,
      "translation": [
        16.1,
        15.35,
        -15
      ],
      "scale": [
        1.6,
        0.16,
        0.16
      ]
    },
    {
      "name": "Tower_SW_Core",
      "mesh": 0,
      "translation": [
        -16,
        5,
        12.5
      ],
      "scale": [
        4.2,
        10,
        4.2
      ]
    },
    {
      "name": "Tower_SW_Crown",
      "mesh": 2,
      "translation": [
        -16,
        10.35,
        12.5
      ],
      "scale": [
        5,
        0.7,
        5
      ]
    },
    {
      "name": "Tower_SW_Signal",
      "mesh": 5,
      "translation": [
        -16,
        10.85,
        10.7
      ],
      "scale": [
        1.6,
        0.16,
        0.16
      ]
    },
    {
      "name": "Tower_SE_Core",
      "mesh": 0,
      "translation": [
        16,
        5.75,
        12.5
      ],
      "scale": [
        4.2,
        11.5,
        4.2
      ]
    },
    {
      "name": "Tower_SE_Crown",
      "mesh": 2,
      "translation": [
        16,
        11.85,
        12.5
      ],
      "scale": [
        5,
        0.7,
        5
      ]
    },
    {
      "name": "Tower_SE_Signal",
      "mesh": 5,
      "translation": [
        16,
        12.35,
        10.7
      ],
      "scale": [
        1.6,
        0.16,
        0.16
      ]
    },
    {
      "name": "RepairBay",
      "translation": [
        4.8,
        0,
        -10.9
      ],
      "children": [
        79,
        80,
        81,
        82,
        83,
        84,
        85,
        86,
        87,
        88
      ]
    },
    {
      "name": "RepairBay_Block",
      "mesh": 1,
      "translation": [
        0,
        2.65,
        0
      ],
      "scale": [
        12.4,
        5.3,
        5
      ]
    },
    {
      "name": "RepairBay_Roof",
      "mesh": 0,
      "translation": [
        0,
        5.55,
        0
      ],
      "scale": [
        13.4,
        0.52,
        5.8
      ]
    },
    {
      "name": "RepairBay_Door",
      "mesh": 3,
      "translation": [
        0,
        1.9,
        2.54
      ],
      "scale": [
        4.7,
        3.8,
        0.24
      ]
    },
    {
      "name": "RepairBay_Lamp_-4.8",
      "mesh": 4,
      "translation": [
        -4.8,
        2.1,
        2.7
      ],
      "scale": [
        0.22,
        1.25,
        0.16
      ]
    },
    {
      "name": "RepairBay_Lamp_-3.2",
      "mesh": 4,
      "translation": [
        -3.2,
        2.1,
        2.7
      ],
      "scale": [
        0.22,
        1.25,
        0.16
      ]
    },
    {
      "name": "RepairBay_Lamp_3.2",
      "mesh": 4,
      "translation": [
        3.2,
        2.1,
        2.7
      ],
      "scale": [
        0.22,
        1.25,
        0.16
      ]
    },
    {
      "name": "RepairBay_Lamp_4.8",
      "mesh": 4,
      "translation": [
        4.8,
        2.1,
        2.7
      ],
      "scale": [
        0.22,
        1.25,
        0.16
      ]
    },
    {
      "name": "RepairBay_RoofUnit_-3.5",
      "mesh": 0,
      "translation": [
        -3.5,
        6.1,
        0
      ],
      "scale": [
        2.3,
        0.7,
        1.8
      ]
    },
    {
      "name": "RepairBay_RoofUnit_0",
      "mesh": 0,
      "translation": [
        0,
        6.1,
        0
      ],
      "scale": [
        2.3,
        0.7,
        1.8
      ]
    },
    {
      "name": "RepairBay_RoofUnit_3.5",
      "mesh": 0,
      "translation": [
        3.5,
        6.1,
        0
      ],
      "scale": [
        2.3,
        0.7,
        1.8
      ]
    },
    {
      "name": "SignalAnnex",
      "translation": [
        -11.7,
        0,
        -7.6
      ],
      "children": [
        90,
        91,
        92,
        93
      ]
    },
    {
      "name": "Annex_Core",
      "mesh": 3,
      "translation": [
        0,
        2.1,
        0
      ],
      "scale": [
        5.5,
        4.2,
        4.4
      ]
    },
    {
      "name": "Annex_Roof",
      "mesh": 2,
      "translation": [
        0,
        4.45,
        0
      ],
      "scale": [
        6.3,
        0.5,
        5.1
      ]
    },
    {
      "name": "Annex_Door",
      "mesh": 0,
      "translation": [
        1.15,
        1.55,
        2.24
      ],
      "scale": [
        1.8,
        3.1,
        0.22
      ]
    },
    {
      "name": "Annex_Glow",
      "mesh": 5,
      "translation": [
        -1.2,
        2.6,
        2.38
      ],
      "scale": [
        0.18,
        1.6,
        0.12
      ]
    },
    {
      "name": "PipeGantry",
      "translation": [
        -7.8,
        0,
        1.8
      ],
      "children": [
        95,
        96,
        97,
        98,
        99
      ]
    },
    {
      "name": "Gantry_WestPost",
      "mesh": 0,
      "translation": [
        -2.7,
        2.8,
        0
      ],
      "scale": [
        0.65,
        5.6,
        0.65
      ]
    },
    {
      "name": "Gantry_EastPost",
      "mesh": 0,
      "translation": [
        2.7,
        2.8,
        0
      ],
      "scale": [
        0.65,
        5.6,
        0.65
      ]
    },
    {
      "name": "Gantry_Beam",
      "mesh": 3,
      "translation": [
        0,
        5.35,
        0
      ],
      "scale": [
        6,
        0.65,
        0.8
      ]
    },
    {
      "name": "Gantry_PipeA",
      "mesh": 1,
      "translation": [
        0,
        5.78,
        0.32
      ],
      "scale": [
        6.1,
        0.18,
        0.18
      ]
    },
    {
      "name": "Gantry_PipeB",
      "mesh": 1,
      "translation": [
        0,
        5.78,
        -0.32
      ],
      "scale": [
        6.1,
        0.18,
        0.18
      ]
    },
    {
      "name": "Cargo_0_Base",
      "mesh": 1,
      "translation": [
        -12.6,
        0.75,
        6.8
      ],
      "scale": [
        1.8,
        1.5,
        1.8
      ],
      "rotation": [
        0,
        0.09983341664682815,
        0,
        0.9950041652780257
      ]
    },
    {
      "name": "Cargo_0_Latch",
      "mesh": 4,
      "translation": [
        -12.6,
        1.45,
        5.88
      ],
      "scale": [
        0.62,
        0.12,
        0.1
      ],
      "rotation": [
        0,
        0.09983341664682815,
        0,
        0.9950041652780257
      ]
    },
    {
      "name": "Cargo_1_Base",
      "mesh": 3,
      "translation": [
        -10.7,
        0.75,
        8.6
      ],
      "scale": [
        1.8,
        1.5,
        1.8
      ],
      "rotation": [
        0,
        -0.059964006479444595,
        0,
        0.9982005399352042
      ]
    },
    {
      "name": "Cargo_1_Latch",
      "mesh": 4,
      "translation": [
        -10.7,
        1.45,
        7.68
      ],
      "scale": [
        0.62,
        0.12,
        0.1
      ],
      "rotation": [
        0,
        -0.059964006479444595,
        0,
        0.9982005399352042
      ]
    },
    {
      "name": "Cargo_2_Base",
      "mesh": 1,
      "translation": [
        11.3,
        0.75,
        7.5
      ],
      "scale": [
        1.8,
        1.5,
        1.8
      ],
      "rotation": [
        0,
        0.03998933418663416,
        0,
        0.9992001066609779
      ]
    },
    {
      "name": "Cargo_2_Latch",
      "mesh": 4,
      "translation": [
        11.3,
        1.45,
        6.58
      ],
      "scale": [
        0.62,
        0.12,
        0.1
      ],
      "rotation": [
        0,
        0.03998933418663416,
        0,
        0.9992001066609779
      ]
    },
    {
      "name": "Cargo_3_Base",
      "mesh": 3,
      "translation": [
        13.2,
        0.75,
        5.5
      ],
      "scale": [
        1.8,
        1.5,
        1.8
      ],
      "rotation": [
        0,
        -0.09983341664682815,
        0,
        0.9950041652780257
      ]
    },
    {
      "name": "Cargo_3_Latch",
      "mesh": 4,
      "translation": [
        13.2,
        1.45,
        4.58
      ],
      "scale": [
        0.62,
        0.12,
        0.1
      ],
      "rotation": [
        0,
        -0.09983341664682815,
        0,
        0.9950041652780257
      ]
    },
    {
      "name": "Cargo_4_Base",
      "mesh": 1,
      "translation": [
        11.7,
        0.75,
        -6.7
      ],
      "scale": [
        1.8,
        1.5,
        1.8
      ],
      "rotation": [
        0,
        0.06994284733753277,
        0,
        0.9975510002532796
      ]
    },
    {
      "name": "Cargo_4_Latch",
      "mesh": 4,
      "translation": [
        11.7,
        1.45,
        -7.62
      ],
      "scale": [
        0.62,
        0.12,
        0.1
      ],
      "rotation": [
        0,
        0.06994284733753277,
        0,
        0.9975510002532796
      ]
    },
    {
      "name": "Station_Aster",
      "translation": [
        -9.25,
        0,
        -6.6
      ],
      "children": [
        111,
        112,
        113,
        114,
        115,
        116
      ]
    },
    {
      "name": "Aster_Base",
      "mesh": 0,
      "translation": [
        0,
        0.34,
        0
      ],
      "scale": [
        1.7,
        0.68,
        1.7
      ],
      "rotation": [
        0,
        0.059964006479444595,
        0,
        0.9982005399352042
      ]
    },
    {
      "name": "Aster_Mast",
      "mesh": 3,
      "translation": [
        0,
        1.25,
        0
      ],
      "scale": [
        0.55,
        1.8,
        0.55
      ],
      "rotation": [
        0,
        0.059964006479444595,
        0,
        0.9982005399352042
      ]
    },
    {
      "name": "Aster_Head",
      "mesh": 1,
      "translation": [
        0,
        2.25,
        0
      ],
      "scale": [
        1.25,
        0.5,
        0.85
      ],
      "rotation": [
        0,
        0.059964006479444595,
        0,
        0.9982005399352042
      ]
    },
    {
      "name": "Aster_Core",
      "mesh": 4,
      "translation": [
        0,
        2.27,
        0.46
      ],
      "scale": [
        0.46,
        0.22,
        0.08
      ],
      "rotation": [
        0,
        0.059964006479444595,
        0,
        0.9982005399352042
      ]
    },
    {
      "name": "Aster_ArmL",
      "mesh": 0,
      "translation": [
        -0.72,
        1.55,
        0
      ],
      "scale": [
        0.9,
        0.16,
        0.18
      ],
      "rotation": [
        0,
        0.059964006479444595,
        0,
        0.9982005399352042
      ]
    },
    {
      "name": "Aster_ArmR",
      "mesh": 0,
      "translation": [
        0.72,
        1.55,
        0
      ],
      "scale": [
        0.9,
        0.16,
        0.18
      ],
      "rotation": [
        0,
        0.059964006479444595,
        0,
        0.9982005399352042
      ]
    },
    {
      "name": "Station_Meridian",
      "translation": [
        8.7,
        0,
        -2.1
      ],
      "children": [
        118,
        119,
        120,
        121,
        122,
        123
      ]
    },
    {
      "name": "Meridian_Base",
      "mesh": 0,
      "translation": [
        0,
        0.34,
        0
      ],
      "scale": [
        1.7,
        0.68,
        1.7
      ],
      "rotation": [
        0,
        -0.09983341664682815,
        0,
        0.9950041652780257
      ]
    },
    {
      "name": "Meridian_Mast",
      "mesh": 3,
      "translation": [
        0,
        1.25,
        0
      ],
      "scale": [
        0.55,
        1.8,
        0.55
      ],
      "rotation": [
        0,
        -0.09983341664682815,
        0,
        0.9950041652780257
      ]
    },
    {
      "name": "Meridian_Head",
      "mesh": 1,
      "translation": [
        0,
        2.25,
        0
      ],
      "scale": [
        1.25,
        0.5,
        0.85
      ],
      "rotation": [
        0,
        -0.09983341664682815,
        0,
        0.9950041652780257
      ]
    },
    {
      "name": "Meridian_Core",
      "mesh": 4,
      "translation": [
        0,
        2.27,
        0.46
      ],
      "scale": [
        0.46,
        0.22,
        0.08
      ],
      "rotation": [
        0,
        -0.09983341664682815,
        0,
        0.9950041652780257
      ]
    },
    {
      "name": "Meridian_ArmL",
      "mesh": 0,
      "translation": [
        -0.72,
        1.55,
        0
      ],
      "scale": [
        0.9,
        0.16,
        0.18
      ],
      "rotation": [
        0,
        -0.09983341664682815,
        0,
        0.9950041652780257
      ]
    },
    {
      "name": "Meridian_ArmR",
      "mesh": 0,
      "translation": [
        0.72,
        1.55,
        0
      ],
      "scale": [
        0.9,
        0.16,
        0.18
      ],
      "rotation": [
        0,
        -0.09983341664682815,
        0,
        0.9950041652780257
      ]
    },
    {
      "name": "Station_Lumen",
      "translation": [
        5.2,
        0,
        8.3
      ],
      "children": [
        125,
        126,
        127,
        128,
        129,
        130
      ]
    },
    {
      "name": "Lumen_Base",
      "mesh": 0,
      "translation": [
        0,
        0.34,
        0
      ],
      "scale": [
        1.7,
        0.68,
        1.7
      ],
      "rotation": [
        0,
        0.03998933418663416,
        0,
        0.9992001066609779
      ]
    },
    {
      "name": "Lumen_Mast",
      "mesh": 3,
      "translation": [
        0,
        1.25,
        0
      ],
      "scale": [
        0.55,
        1.8,
        0.55
      ],
      "rotation": [
        0,
        0.03998933418663416,
        0,
        0.9992001066609779
      ]
    },
    {
      "name": "Lumen_Head",
      "mesh": 1,
      "translation": [
        0,
        2.25,
        0
      ],
      "scale": [
        1.25,
        0.5,
        0.85
      ],
      "rotation": [
        0,
        0.03998933418663416,
        0,
        0.9992001066609779
      ]
    },
    {
      "name": "Lumen_Core",
      "mesh": 4,
      "translation": [
        0,
        2.27,
        0.46
      ],
      "scale": [
        0.46,
        0.22,
        0.08
      ],
      "rotation": [
        0,
        0.03998933418663416,
        0,
        0.9992001066609779
      ]
    },
    {
      "name": "Lumen_ArmL",
      "mesh": 0,
      "translation": [
        -0.72,
        1.55,
        0
      ],
      "scale": [
        0.9,
        0.16,
        0.18
      ],
      "rotation": [
        0,
        0.03998933418663416,
        0,
        0.9992001066609779
      ]
    },
    {
      "name": "Lumen_ArmR",
      "mesh": 0,
      "translation": [
        0.72,
        1.55,
        0
      ],
      "scale": [
        0.9,
        0.16,
        0.18
      ],
      "rotation": [
        0,
        0.03998933418663416,
        0,
        0.9992001066609779
      ]
    },
    {
      "name": "CourierRig",
      "translation": [
        0,
        0.8,
        6.1
      ],
      "children": [
        132,
        133,
        134,
        135,
        136,
        137
      ]
    },
    {
      "name": "Courier_Chassis",
      "mesh": 3,
      "translation": [
        0,
        0.62,
        0
      ],
      "scale": [
        1.25,
        0.55,
        1.5
      ]
    },
    {
      "name": "Courier_Cabin",
      "mesh": 0,
      "translation": [
        0,
        1.08,
        -0.08
      ],
      "scale": [
        0.85,
        0.62,
        0.9
      ]
    },
    {
      "name": "Courier_Lamp",
      "mesh": 4,
      "translation": [
        0,
        1.1,
        -0.56
      ],
      "scale": [
        0.42,
        0.18,
        0.08
      ]
    },
    {
      "name": "Courier_SkidL",
      "mesh": 0,
      "translation": [
        -0.66,
        0.3,
        0
      ],
      "scale": [
        0.24,
        0.26,
        1.5
      ]
    },
    {
      "name": "Courier_SkidR",
      "mesh": 0,
      "translation": [
        0.66,
        0.3,
        0
      ],
      "scale": [
        0.24,
        0.26,
        1.5
      ]
    },
    {
      "name": "Courier_Antenna",
      "mesh": 5,
      "translation": [
        0.25,
        1.65,
        0.14
      ],
      "scale": [
        0.08,
        0.7,
        0.08
      ]
    }
  ],
  "meshes": [
    {
      "name": "CharcoalPanelBox",
      "primitives": [
        {
          "attributes": {
            "POSITION": 0,
            "NORMAL": 1,
            "TEXCOORD_0": 2
          },
          "indices": 3,
          "material": 0,
          "mode": 4
        }
      ],
      "extras": {
        "uvIslandCount": 6,
        "uvRegion": "charcoal",
        "nonOverlappingUv": true
      }
    },
    {
      "name": "RustPanelBox",
      "primitives": [
        {
          "attributes": {
            "POSITION": 4,
            "NORMAL": 5,
            "TEXCOORD_0": 6
          },
          "indices": 7,
          "material": 0,
          "mode": 4
        }
      ],
      "extras": {
        "uvIslandCount": 6,
        "uvRegion": "rust",
        "nonOverlappingUv": true
      }
    },
    {
      "name": "StoneSlabBox",
      "primitives": [
        {
          "attributes": {
            "POSITION": 8,
            "NORMAL": 9,
            "TEXCOORD_0": 10
          },
          "indices": 11,
          "material": 0,
          "mode": 4
        }
      ],
      "extras": {
        "uvIslandCount": 6,
        "uvRegion": "stone",
        "nonOverlappingUv": true
      }
    },
    {
      "name": "TealMachineBox",
      "primitives": [
        {
          "attributes": {
            "POSITION": 12,
            "NORMAL": 13,
            "TEXCOORD_0": 14
          },
          "indices": 15,
          "material": 0,
          "mode": 4
        }
      ],
      "extras": {
        "uvIslandCount": 6,
        "uvRegion": "teal",
        "nonOverlappingUv": true
      }
    },
    {
      "name": "WarmGlowBox",
      "primitives": [
        {
          "attributes": {
            "POSITION": 4,
            "NORMAL": 5,
            "TEXCOORD_0": 6
          },
          "indices": 7,
          "material": 1,
          "mode": 4
        }
      ],
      "extras": {
        "uvIslandCount": 6,
        "uvRegion": "rust",
        "nonOverlappingUv": true
      }
    },
    {
      "name": "CyanGlowBox",
      "primitives": [
        {
          "attributes": {
            "POSITION": 12,
            "NORMAL": 13,
            "TEXCOORD_0": 14
          },
          "indices": 15,
          "material": 2,
          "mode": 4
        }
      ],
      "extras": {
        "uvIslandCount": 6,
        "uvRegion": "teal",
        "nonOverlappingUv": true
      }
    }
  ],
  "accessors": [
    {
      "bufferView": 0,
      "componentType": 5126,
      "count": 24,
      "type": "VEC3",
      "min": [
        -0.5,
        -0.5,
        -0.5
      ],
      "max": [
        0.5,
        0.5,
        0.5
      ]
    },
    {
      "bufferView": 1,
      "componentType": 5126,
      "count": 24,
      "type": "VEC3",
      "min": [
        -1,
        -1,
        -1
      ],
      "max": [
        1,
        1,
        1
      ]
    },
    {
      "bufferView": 2,
      "componentType": 5126,
      "count": 24,
      "type": "VEC2",
      "min": [
        0,
        0.5
      ],
      "max": [
        0.5,
        1
      ]
    },
    {
      "bufferView": 3,
      "componentType": 5123,
      "count": 36,
      "type": "SCALAR",
      "min": [
        0
      ],
      "max": [
        23
      ]
    },
    {
      "bufferView": 4,
      "componentType": 5126,
      "count": 24,
      "type": "VEC3",
      "min": [
        -0.5,
        -0.5,
        -0.5
      ],
      "max": [
        0.5,
        0.5,
        0.5
      ]
    },
    {
      "bufferView": 5,
      "componentType": 5126,
      "count": 24,
      "type": "VEC3",
      "min": [
        -1,
        -1,
        -1
      ],
      "max": [
        1,
        1,
        1
      ]
    },
    {
      "bufferView": 6,
      "componentType": 5126,
      "count": 24,
      "type": "VEC2",
      "min": [
        0.5,
        0.5
      ],
      "max": [
        1,
        1
      ]
    },
    {
      "bufferView": 7,
      "componentType": 5123,
      "count": 36,
      "type": "SCALAR",
      "min": [
        0
      ],
      "max": [
        23
      ]
    },
    {
      "bufferView": 8,
      "componentType": 5126,
      "count": 24,
      "type": "VEC3",
      "min": [
        -0.5,
        -0.5,
        -0.5
      ],
      "max": [
        0.5,
        0.5,
        0.5
      ]
    },
    {
      "bufferView": 9,
      "componentType": 5126,
      "count": 24,
      "type": "VEC3",
      "min": [
        -1,
        -1,
        -1
      ],
      "max": [
        1,
        1,
        1
      ]
    },
    {
      "bufferView": 10,
      "componentType": 5126,
      "count": 24,
      "type": "VEC2",
      "min": [
        0,
        0
      ],
      "max": [
        0.5,
        0.5
      ]
    },
    {
      "bufferView": 11,
      "componentType": 5123,
      "count": 36,
      "type": "SCALAR",
      "min": [
        0
      ],
      "max": [
        23
      ]
    },
    {
      "bufferView": 12,
      "componentType": 5126,
      "count": 24,
      "type": "VEC3",
      "min": [
        -0.5,
        -0.5,
        -0.5
      ],
      "max": [
        0.5,
        0.5,
        0.5
      ]
    },
    {
      "bufferView": 13,
      "componentType": 5126,
      "count": 24,
      "type": "VEC3",
      "min": [
        -1,
        -1,
        -1
      ],
      "max": [
        1,
        1,
        1
      ]
    },
    {
      "bufferView": 14,
      "componentType": 5126,
      "count": 24,
      "type": "VEC2",
      "min": [
        0.5,
        0
      ],
      "max": [
        1,
        0.5
      ]
    },
    {
      "bufferView": 15,
      "componentType": 5123,
      "count": 36,
      "type": "SCALAR",
      "min": [
        0
      ],
      "max": [
        23
      ]
    }
  ],
  "bufferViews": [
    {
      "buffer": 0,
      "byteOffset": 0,
      "byteLength": 288,
      "target": 34962
    },
    {
      "buffer": 0,
      "byteOffset": 288,
      "byteLength": 288,
      "target": 34962
    },
    {
      "buffer": 0,
      "byteOffset": 576,
      "byteLength": 192,
      "target": 34962
    },
    {
      "buffer": 0,
      "byteOffset": 768,
      "byteLength": 72,
      "target": 34963
    },
    {
      "buffer": 0,
      "byteOffset": 840,
      "byteLength": 288,
      "target": 34962
    },
    {
      "buffer": 0,
      "byteOffset": 1128,
      "byteLength": 288,
      "target": 34962
    },
    {
      "buffer": 0,
      "byteOffset": 1416,
      "byteLength": 192,
      "target": 34962
    },
    {
      "buffer": 0,
      "byteOffset": 1608,
      "byteLength": 72,
      "target": 34963
    },
    {
      "buffer": 0,
      "byteOffset": 1680,
      "byteLength": 288,
      "target": 34962
    },
    {
      "buffer": 0,
      "byteOffset": 1968,
      "byteLength": 288,
      "target": 34962
    },
    {
      "buffer": 0,
      "byteOffset": 2256,
      "byteLength": 192,
      "target": 34962
    },
    {
      "buffer": 0,
      "byteOffset": 2448,
      "byteLength": 72,
      "target": 34963
    },
    {
      "buffer": 0,
      "byteOffset": 2520,
      "byteLength": 288,
      "target": 34962
    },
    {
      "buffer": 0,
      "byteOffset": 2808,
      "byteLength": 288,
      "target": 34962
    },
    {
      "buffer": 0,
      "byteOffset": 3096,
      "byteLength": 192,
      "target": 34962
    },
    {
      "buffer": 0,
      "byteOffset": 3288,
      "byteLength": 72,
      "target": 34963
    }
  ],
  "buffers": [
    {
      "uri": "repair-district.bin",
      "byteLength": 3360
    }
  ],
  "samplers": [
    {
      "magFilter": 9729,
      "minFilter": 9987,
      "wrapS": 10497,
      "wrapT": 10497
    }
  ],
  "images": [
    {
      "name": "Material Atlas Base Color",
      "uri": "../textures/material-atlas-basecolor.png"
    },
    {
      "name": "Material Atlas Normal",
      "uri": "../textures/material-atlas-normal.png"
    },
    {
      "name": "Material Atlas ORM",
      "uri": "../textures/material-atlas-orm.png"
    }
  ],
  "textures": [
    {
      "name": "Atlas Base Color",
      "sampler": 0,
      "source": 0
    },
    {
      "name": "Atlas Normal",
      "sampler": 0,
      "source": 1
    },
    {
      "name": "Atlas ORM",
      "sampler": 0,
      "source": 2
    }
  ],
  "materials": [
    {
      "name": "RepairDistrictAtlasPBR",
      "pbrMetallicRoughness": {
        "baseColorFactor": [
          1,
          1,
          1,
          1
        ],
        "baseColorTexture": {
          "index": 0,
          "texCoord": 0
        },
        "metallicFactor": 1,
        "roughnessFactor": 1,
        "metallicRoughnessTexture": {
          "index": 2,
          "texCoord": 0
        }
      },
      "normalTexture": {
        "index": 1,
        "texCoord": 0,
        "scale": 0.55
      },
      "occlusionTexture": {
        "index": 2,
        "texCoord": 0,
        "strength": 0.7
      }
    },
    {
      "name": "WarmServiceGlow",
      "pbrMetallicRoughness": {
        "baseColorFactor": [
          0.92,
          0.24,
          0.055,
          1
        ],
        "metallicFactor": 0.15,
        "roughnessFactor": 0.35
      },
      "emissiveFactor": [
        0.92,
        0.24,
        0.055
      ]
    },
    {
      "name": "CyanSignalGlow",
      "pbrMetallicRoughness": {
        "baseColorFactor": [
          0.06,
          0.74,
          0.72,
          1
        ],
        "metallicFactor": 0.12,
        "roughnessFactor": 0.3
      },
      "emissiveFactor": [
        0.06,
        0.74,
        0.72
      ]
    }
  ]
}
