<svg xmlns="http://www.w3.org/2000/svg" width="1024" height="1024" viewBox="0 0 1024 1024"><rect width="1024" height="1024" fill="#152326"/><g fill="#67bfb044" stroke="#c4d9bc" stroke-width="1"><path d="M 346.411,432.382 L 321.695,432.382 L 334.053,449.859 Z"/><path d="M 1002.859,775.920 L 1002.859,800.636 L 1020.336,788.278 Z"/><path d="M 598.155,156.634 L 585.797,139.157 L 573.439,156.634 Z"/><path d="M 21.141,449.859 L 21.141,425.143 L 3.664,437.501 Z"/><path d="M 346.411,156.634 L 334.053,139.157 L 321.695,156.634 Z"/><path d="M 727.110,800.636 L 727.110,775.920 L 709.633,788.278 Z"/><path d="M 598.155,432.382 L 573.439,432.382 L 585.797,449.859 Z"/><path d="M 296.890,449.859 L 314.367,437.501 L 296.890,425.143 Z"/><path d="M 331.844,457.187 L 21.141,457.187 L 21.141,474.664 L 331.844,474.664 Z"/><path d="M 3.664,474.664 L 3.664,1002.859 L 21.141,1002.859 L 21.141,474.664 Z"/><path d="M 21.141,1020.336 L 331.844,1020.336 L 331.844,1002.859 L 21.141,1002.859 Z"/><path d="M 349.321,1002.859 L 349.321,474.664 L 331.844,474.664 L 331.844,1002.859 Z"/><path d="M 598.155,432.382 L 598.155,156.634 L 573.439,156.634 L 573.439,432.382 Z"/><path d="M 21.141,449.859 L 296.890,449.859 L 296.890,425.143 L 21.141,425.143 Z"/><path d="M 374.126,1002.859 L 374.126,474.664 L 356.649,474.664 L 356.649,1002.859 Z"/><path d="M 684.828,457.187 L 374.126,457.187 L 374.126,474.664 L 684.828,474.664 Z"/><path d="M 374.126,1020.336 L 684.828,1020.336 L 684.828,1002.859 L 374.126,1002.859 Z"/><path d="M 702.305,1002.859 L 702.305,474.664 L 684.828,474.664 L 684.828,1002.859 Z"/><path d="M 346.411,432.382 L 346.411,156.634 L 321.695,156.634 L 321.695,432.382 Z"/><path d="M 727.110,800.636 L 1002.859,800.636 L 1002.859,775.920 L 727.110,775.920 Z"/><path d="M 566.111,432.382 L 566.111,156.634 L 346.411,156.634 L 346.411,432.382 Z"/><path d="M 21.141,474.664 L 21.141,1002.859 L 331.844,1002.859 L 331.844,474.664 Z"/><path d="M 727.110,402.430 L 727.110,775.920 L 1002.859,775.920 L 1002.859,402.430 Z"/><path d="M 727.110,1020.336 L 1002.859,1020.336 L 1002.859,800.636 L 727.110,800.636 Z"/><path d="M 21.141,51.653 L 21.141,425.143 L 296.890,425.143 L 296.890,51.653 Z"/><path d="M 374.126,474.664 L 374.126,1002.859 L 684.828,1002.859 L 684.828,474.664 Z"/></g></svg>