<svg xmlns="http://www.w3.org/2000/svg" width="1024" height="1024" viewBox="0 0 1024 1024"><rect width="1024" height="1024" fill="#152326"/><g fill="#67bfb044" stroke="#c4d9bc" stroke-width="1"><path d="M 13.389,387.581 L 2.865,395.022 L 13.389,402.464 Z"/><path d="M 893.322,717.804 L 903.847,725.246 L 903.847,710.362 Z"/><path d="M 63.906,387.581 L 63.906,402.464 L 74.431,395.022 Z"/><path d="M 954.364,725.246 L 964.888,717.804 L 954.364,710.362 Z"/><path d="M 13.389,408.194 L 2.865,418.719 L 13.389,418.719 Z"/><path d="M 13.389,1021.135 L 13.389,1010.611 L 2.865,1010.611 Z"/><path d="M 877.068,408.194 L 877.068,418.719 L 887.592,418.719 Z"/><path d="M 877.068,1021.135 L 887.592,1010.611 L 877.068,1010.611 Z"/><path d="M 63.906,387.581 L 13.389,387.581 L 13.389,402.464 L 63.906,402.464 Z"/><path d="M 431.839,418.719 L 431.839,1010.611 L 442.364,1010.611 L 442.364,418.719 Z"/><path d="M 903.847,725.246 L 954.364,725.246 L 954.364,710.362 L 903.847,710.362 Z"/><path d="M 458.618,1010.611 L 458.618,418.719 L 448.094,418.719 L 448.094,1010.611 Z"/><path d="M 877.068,408.194 L 458.618,408.194 L 458.618,418.719 L 877.068,418.719 Z"/><path d="M 458.618,1021.135 L 877.068,1021.135 L 877.068,1010.611 L 458.618,1010.611 Z"/><path d="M 887.592,1010.611 L 887.592,418.719 L 877.068,418.719 L 877.068,1010.611 Z"/><path d="M 1021.135,408.194 L 970.618,408.194 L 970.618,418.719 L 1021.135,418.719 Z"/><path d="M 970.618,1021.135 L 1021.135,1021.135 L 1021.135,1010.611 L 970.618,1010.611 Z"/><path d="M 13.389,1010.611 L 13.389,418.719 L 2.865,418.719 L 2.865,1010.611 Z"/><path d="M 431.839,408.194 L 13.389,408.194 L 13.389,418.719 L 431.839,418.719 Z"/><path d="M 13.389,1021.135 L 431.839,1021.135 L 431.839,1010.611 L 13.389,1010.611 Z"/><path d="M 63.906,387.581 L 63.906,91.692 L 13.389,91.692 L 13.389,387.581 Z"/><path d="M 903.847,291.832 L 903.847,710.362 L 954.364,710.362 L 954.364,291.832 Z"/><path d="M 13.389,418.719 L 13.389,1010.611 L 431.839,1010.611 L 431.839,418.719 Z"/><path d="M 954.364,1021.135 L 954.364,725.246 L 903.847,725.246 L 903.847,1021.135 Z"/><path d="M 458.618,418.719 L 458.618,1010.611 L 877.068,1010.611 L 877.068,418.719 Z"/><path d="M 970.618,418.719 L 970.618,1010.611 L 1021.135,1010.611 L 1021.135,418.719 Z"/></g></svg>