<svg xmlns="http://www.w3.org/2000/svg" width="1024" height="1024" viewBox="0 0 1024 1024"><rect width="1024" height="1024" fill="#152326"/><g fill="#67bfb044" stroke="#c4d9bc" stroke-width="1"><path d="M 816.856,1002.390 L 803.881,1011.565 L 816.856,1020.740 Z"/><path d="M 738.384,310.448 L 751.359,319.622 L 751.359,301.273 Z"/><path d="M 849.883,1002.390 L 849.883,1020.740 L 862.858,1011.565 Z"/><path d="M 784.386,319.622 L 797.361,310.448 L 784.386,301.273 Z"/><path d="M 887.728,1007.765 L 869.379,1007.765 L 878.553,1020.740 Z"/><path d="M 849.883,294.753 L 862.858,285.578 L 849.883,276.403 Z"/><path d="M 887.728,974.738 L 878.553,961.763 L 869.379,974.738 Z"/><path d="M 816.856,294.753 L 816.856,276.403 L 803.881,285.578 Z"/><path d="M 849.883,1002.390 L 816.856,1002.390 L 816.856,1020.740 L 849.883,1020.740 Z"/><path d="M 351.327,1007.765 L 16.235,1007.765 L 16.235,1020.740 L 351.327,1020.740 Z"/><path d="M 751.359,319.622 L 784.386,319.622 L 784.386,301.273 L 751.359,301.273 Z"/><path d="M 383.797,16.235 L 718.888,16.235 L 718.888,3.260 L 383.797,3.260 Z"/><path d="M 731.863,1007.765 L 731.863,16.235 L 718.888,16.235 L 718.888,1007.765 Z"/><path d="M 370.822,16.235 L 370.822,1007.765 L 383.797,1007.765 L 383.797,16.235 Z"/><path d="M 383.797,1020.740 L 718.888,1020.740 L 718.888,1007.765 L 383.797,1007.765 Z"/><path d="M 887.728,1007.765 L 887.728,974.738 L 869.379,974.738 L 869.379,1007.765 Z"/><path d="M 816.856,294.753 L 849.883,294.753 L 849.883,276.403 L 816.856,276.403 Z"/><path d="M 16.235,16.235 L 351.326,16.235 L 351.326,3.260 L 16.235,3.260 Z"/><path d="M 364.301,1007.765 L 364.301,16.235 L 351.326,16.235 L 351.327,1007.765 Z"/><path d="M 3.260,16.235 L 3.260,1007.765 L 16.235,1007.765 L 16.235,16.235 Z"/><path d="M 849.883,1002.390 L 849.883,301.273 L 816.856,301.273 L 816.856,1002.390 Z"/><path d="M 751.359,64.328 L 751.359,301.273 L 784.386,301.273 L 784.386,64.328 Z"/><path d="M 351.326,16.235 L 16.235,16.235 L 16.235,1007.765 L 351.327,1007.765 Z"/><path d="M 784.386,1020.740 L 784.386,319.622 L 751.359,319.622 L 751.359,1020.740 Z"/><path d="M 718.888,16.235 L 383.797,16.235 L 383.797,1007.765 L 718.888,1007.765 Z"/><path d="M 816.856,39.458 L 816.856,276.403 L 849.883,276.403 L 849.883,39.458 Z"/></g></svg>