<svg xmlns="http://www.w3.org/2000/svg" width="1024" height="1024" viewBox="0 0 1024 1024"><rect width="1024" height="1024" fill="#152326"/><g fill="#67bfb044" stroke="#c4d9bc" stroke-width="1"><path d="M 797.785,981.028 L 742.137,981.028 L 769.961,1020.377 Z"/><path d="M 294.806,742.137 L 294.806,797.785 L 334.155,769.961 Z"/><path d="M 797.785,391.416 L 769.961,352.067 L 742.137,391.416 Z"/><path d="M 3.623,187.728 L 59.271,187.728 L 31.447,148.379 Z"/><path d="M 797.785,729.194 L 769.961,689.845 L 742.137,729.194 Z"/><path d="M 42.972,797.785 L 42.972,742.137 L 3.623,769.961 Z"/><path d="M 797.785,643.250 L 742.137,643.250 L 769.961,682.599 Z"/><path d="M 3.623,439.562 L 31.447,478.911 L 59.271,439.562 Z"/><path d="M 695.542,579.668 L 380.750,579.668 L 380.750,619.017 L 695.542,619.017 Z"/><path d="M 341.401,619.017 L 341.401,981.028 L 380.750,981.028 L 380.750,619.017 Z"/><path d="M 380.750,1020.377 L 695.542,1020.377 L 695.542,981.028 L 380.750,981.028 Z"/><path d="M 734.891,981.028 L 734.891,619.017 L 695.542,619.017 L 695.542,981.028 Z"/><path d="M 797.785,643.250 L 797.785,391.416 L 742.137,391.416 L 742.137,643.250 Z"/><path d="M 3.623,187.728 L 3.623,439.562 L 59.271,439.562 L 59.271,187.728 Z"/><path d="M 380.750,533.073 L 380.750,171.062 L 341.401,171.062 L 341.401,533.073 Z"/><path d="M 695.542,131.713 L 380.750,131.713 L 380.750,171.062 L 695.542,171.062 Z"/><path d="M 380.750,572.422 L 695.542,572.422 L 695.542,533.073 L 380.750,533.073 Z"/><path d="M 734.891,533.073 L 734.891,171.062 L 695.542,171.062 L 695.542,533.073 Z"/><path d="M 797.785,981.028 L 797.785,729.194 L 742.137,729.194 L 742.137,981.028 Z"/><path d="M 42.972,797.785 L 294.806,797.785 L 294.806,742.137 L 42.972,742.137 Z"/><path d="M 1020.377,981.028 L 1020.377,729.194 L 797.785,729.194 L 797.785,981.028 Z"/><path d="M 380.750,619.017 L 380.750,981.028 L 695.542,981.028 L 695.542,619.017 Z"/><path d="M 42.972,486.157 L 42.972,742.137 L 294.806,742.137 L 294.806,486.157 Z"/><path d="M 42.972,1020.377 L 294.806,1020.377 L 294.806,797.785 L 42.972,797.785 Z"/><path d="M 315.251,187.728 L 59.271,187.728 L 59.271,439.562 L 315.251,439.562 Z"/><path d="M 380.750,171.062 L 380.750,533.073 L 695.542,533.073 L 695.542,171.062 Z"/></g></svg>